<?xml version="1.0" encoding="utf-8"?>
<!-- Generator: Adobe Illustrator 19.1.0, SVG Export Plug-In . SVG Version: 6.00 Build 0)  -->
<svg version="1.1" id="Logo" xmlns="http://www.w3.org/2000/svg" x="0px" y="0px"
	 viewBox="0 0 127 46" style="enable-background:new 0 0 127 46;" xml:space="preserve">
<style type="text/css">
	.st0{fill:#E60000;}
</style>
<path id="UBS" class="st0" d="M74.2639313,27.7007408c0,9.5314064-5.1974487,10.6741409-10.3945427,10.6741409
	c-8.9364204,0-10.8381691-4.5750885-10.8381691-11.1192837V8.7981987h-3.2957039v-1.778491h12.4860458v1.778491h-3.5492363
	v17.9180012c0,6.3221416,1.6478539,9.4674969,6.179451,9.4674969c4.6266632,0,6.8770294-2.2875443,6.8770294-8.8642139V8.7981987
	h-3.3274307v-1.778491h8.8730621v1.778491h-3.0105057V27.7007408z M83.0013199,36.2465439V8.7981987h-3.4765167v-1.778491h13.848671
	c5.894249,0,8.809639,3.3349304,8.809639,7.2428246c0,4.1613283-3.7710266,6.5117197-7.1300964,7.2113867
	c6.5279999,0.6033096,8.3026047,4.7971134,8.3026047,7.8796463c0,6.289669-5.3554916,8.6725044-10.6163559,8.6725044H79.3025513
	v-1.7795258H83.0013199z M96.5424271,14.6123533c0-2.8908529-1.4894104-5.8141546-4.753418-5.8141546h-3.5993347v11.9132061
	h3.2190475C94.8624649,20.7114048,96.5424271,17.7881031,96.5424271,14.6123533z M97.6515427,29.3535652
	c0-4.1309834-1.7746124-6.8950806-5.9259186-6.8950806h-3.5359497v13.7880592h2.8700638
	C95.4649734,36.2465439,97.6515427,33.6416512,97.6515427,29.3535652z M117.1730118,8.3855314
	c-3.2643738,0-5.3558807,1.9376965-5.3558807,5.3051014c0,3.0489931,3.2960968,4.5111761,6.4967422,5.5910635
	c1.9009171,0.6682587,4.3097382,1.5564404,5.9575882,3.1453533c1.8063278,1.7156696,2.7886658,4.0031872,2.7256851,6.8930016
	c-0.1271439,5.4025249-3.8981934,9.0548306-10.5533829,9.0872784c-2.5034561,0-6.4012375-0.5718727-8.7462769-1.9376984
	l-0.253891-8.1331062h1.9651337c0.1584549,5.4632683,2.7253036,8.3226852,7.2251587,8.3226852
	c3.6126251,0,5.609436-2.4142761,5.609436-6.0990276c0-3.1767883-2.630188-4.5436764-6.623497-5.8770008
	c-1.2992325-0.4451675-3.8660812-1.3982964-5.6727753-3.1767883c-1.6161804-1.6213875-2.3763123-3.6533661-2.3763123-5.8141537
	c0-6.3221684,4.4999008-9.0548277,10.0776672-9.0548277c2.2178192,0,5.5456314,0.7949634,7.4786606,1.9062605l0.1901703,7.0532465
	h-1.9647522C122.940506,10.577754,120.7539139,8.3855314,117.1730118,8.3855314z"/>
<path id="Key" d="M34.1385422,13.2936707l-0.8259583,0.6902447l0.8720627,2.8520966l-2.6158295-1.4265671l-0.8720646,0.6902199
	l2.8911839,1.5648499l-3.0743313,2.4833755l-0.8259869-1.1039505l1.1013165-0.8735409L29.962532,17.20364l-1.1008739,0.8745804
	l-0.8255711-1.0578747l1.1009007-0.8745785l-0.8259869-1.0578747l-5.6440334,4.6923695l5.3691196,4.3237019l0.963028-1.1961308
	c0.6885033,0.0460758,1.1930828,0.5519619,1.4684372,1.1961308l-0.9634418,1.1961308l0.5963211,0.4598083
	c1.3305397-1.1961308,3.074667-1.9775181,4.8640995-1.9775181c3.7624207,0,6.6988297,3.0814953,6.6988297,6.8532085
	c0,1.2422085-0.3210449,2.576622-1.0091324,3.6805725l1.0091324,0.7813606
	c-0.0457153,0.7363205-0.7338066,1.5177078-1.4223099,1.7020416L39.277195,36.01717
	c-1.3301277,1.288311-3.0738945,1.9785538-4.9094009,1.9785538c-3.7628098,0-6.6992188-2.9893112-6.6992188-6.8071041
	c0-1.2422333,0.3675117-2.5305443,0.9177551-3.5884171l-0.5502434-0.5069504l-0.9638596,1.288311
	c-0.6885033-0.091116-1.2848759-0.5530281-1.4680214-1.288311l0.9634686-1.1500549l-4.5431061-3.7717133v5.9796429
	l1.5145168,0.0461025c0.1835594,0.2304096,0.3214054,0.5530262,0.3214054,0.9206562
	c0,0.3215504-0.137846,0.6902447-0.2757435,0.9657192h-1.5601788v0.7363224
	c3.3039188,0.5519886,6.0572071,3.3579826,6.0572071,6.7610016c0,3.5423431-2.7075977,6.3493996-6.0572071,6.9003258v1.1971931
	C21.7035503,45.8606796,21.2903767,46,20.9236679,46c-0.4131737,0-0.8720646-0.1393204-1.2391872-0.3215523v-1.1971931
	c-3.3491936-0.5509262-5.9650249-3.3579826-5.9650249-6.9003258c0-3.403019,2.6158314-6.209013,5.9650249-6.7149239v-0.7824001
	H18.124691c-0.1839771-0.2754745-0.275692-0.6441689-0.275692-0.9657192c0-0.36763,0.0917149-0.6902466,0.275692-0.9667587
	h1.5597897V22.171484l-4.5883808,3.7717133l1.0095215,1.1500549c-0.2296133,0.7352829-0.8259869,1.1971951-1.5140753,1.288311
	l-0.9638586-1.288311l-0.596735,0.5069504c0.6428137,1.0578728,0.9638319,2.3461838,0.9638319,3.5884171
	c0,3.8177929-2.936409,6.8071041-6.6988039,6.8071041c-1.7898445,0-3.5796893-0.6902428-4.8640995-1.9785538l-1.0095477,0.7823982
	C0.7798823,36.6152344,0.0917936,35.833847,0,35.0975266l0.9634435-0.7813606C0.3671224,33.2122154,0,31.8778019,0,30.6355934
	c0-3.7717133,2.9364088-6.8532085,6.6992445-6.8532085c1.8350935,0,3.5788603,0.7813873,4.9093742,1.9775181l0.5510979-0.4147701
	l-0.9638844-1.241169c0.2296658-0.6441689,0.8259869-1.1039772,1.514101-1.1961308l0.9638329,1.1961308l5.3687048-4.3237019
	l-5.6440077-4.6923695l-0.8259869,1.0578747l1.1012897,0.8745785l-0.8259611,1.0578747L11.7464905,17.20364l-0.8259869,0.9667587
	l1.0552368,0.8735409l-0.8255711,1.1039505l-3.0286169-2.4833755l2.8450556-1.5648499l-0.8259869-0.6902199l-2.6153903,1.4265671
	l0.8716502-2.8520966l-0.8259864-0.6902447L6.607451,16.4222794l-3.0742805-2.4844666l0.8255718-1.0117712l1.0556259,0.8745785
	l0.8720903-1.011797l-1.1017299-0.9667587l0.8259864-0.9667587l1.1012893,0.8295403l0.7798824-0.9667578L5.5061359,8.8327503
	c0.2292762-0.7834377,0.7342186-1.4265676,1.4684372-1.8874145l12.7099075,10.3976002v-6.9474382h-1.284462v1.3343878h-1.2848492
	v-1.3343878H15.784214v1.3343878h-1.3305397V7.8199148l3.0282021,1.2872725V8.0032358l-2.798563-1.1490154l2.798563-1.1039772
	V4.6923695l-3.0282021,1.1961308V1.9324529h1.3305397v1.425529h1.3309555v-1.425529h1.2848492v1.425529h1.284462V0.2304105
	C20.0516033,0.0921538,20.4647789,0,20.8775635,0c0.3670979,0,0.7799091,0.0921538,1.1470051,0.2304105v17.1125259
	L34.7349167,6.9453359c0.6880875,0.4608469,1.193058,1.1039767,1.4683838,1.8874145l-2.4318275,1.8853378l0.8259621,0.9667578
	l1.1013145-0.8295403l0.8255959,0.9667587l-1.1013412,0.9667587l0.8259888,1.011797l1.1017036-0.8745785l0.8255959,1.0117712
	l-3.0742798,2.4844666L34.1385422,13.2936707z M8.1672153,32.1072006c0,1.1050148,0.8264017,1.7941933,1.7898445,1.8863754
	l-1.6058683,1.2422066c-1.1012893-0.4147682-2.110837-1.7481194-2.110837-2.8981743
	c0-0.3676281,0.0917678-0.5980644,0.1835351-0.8735123c-0.1374311,0-0.2296133,0.0460758-0.3213811,0.0460758
	c-1.4680228,0-2.7072098-1.3804893-2.9821239-2.8059921l1.6515579-1.2883377
	c-0.046104,0.1843605-0.046104,0.321579-0.046104,0.4598351c0,0.9196167,0.8720646,1.7481194,1.7898445,1.7481194
	c0.9634438,0,1.8811979-0.8285027,1.8811979-1.7952614c0-1.1940536-0.9177542-1.9764519-2.0647588-1.9764519
	c-2.2482944,0-4.4509249,2.16185-4.4509249,5.0139217c0,0.8274632,0.1831466,1.6098633,0.5506836,2.2990685l1.0095217-0.7813606
	c0.6881146,0.3215523,1.2387724,1.0117989,1.4223332,1.7941971l-1.0091329,0.7813606
	c0.9634438,0.8285027,2.1561117,1.1961555,3.395299,1.1961555c2.5693126,0,4.6344857-2.0696983,4.6344857-3.9099693
	c0-1.0568371-0.7342186-1.9775181-1.8355598-1.9775181C9.0393324,30.2679386,8.1672153,31.0492992,8.1672153,32.1072006z
	 M21.7953186,36.0642853c0,1.0107574,0.8259869,1.8392601,1.7894287,1.8392601c0.6885033,0,0.9634438-0.2754745,1.4684372-0.6902466
	v2.0707359c-0.5049934,0.2754517-1.0095463,0.4137077-1.5602036,0.4137077c-1.1009274,0-2.0186558-0.3225899-2.6154175-1.288311
	c-0.6424255,0.9657211-1.5601788,1.288311-2.66152,1.288311c-0.504528,0-1.0551853-0.1382561-1.5597382-0.4137077v-2.0707359
	c0.4588642,0.4598122,0.8255711,0.6902466,1.4683857,0.6902466c1.0095463,0,1.7894287-0.8285027,1.7894287-1.8392601
	c0-0.9667587-0.6423988-1.8402977-1.6980762-1.8402977c-1.8807564,0-2.6610794,1.7931824-2.6610794,3.4491234
	c0,2.4383621,1.7898445,4.5080338,4.1295166,4.9228058v-1.2422104c0.3671227-0.1843567,0.7802982-0.2304344,1.1473942-0.2304344
	c0.4127865,0,0.8255978,0.0460777,1.1926937,0.2304344v1.2422104c2.1569157-0.3225937,4.1299057-2.6226997,4.1299057-4.9228058
	c0-1.7020454-0.68853-3.4491234-2.6614933-3.4491234C22.4838219,34.2239876,21.7953186,35.0975266,21.7953186,36.0642853z
	 M33.2208138,27.8285351c0,0.9217205,0.9638329,1.7952614,1.9272766,1.7952614c0.917366,0,1.7894287-0.8285027,1.7894287-1.7481194
	c0-0.1382561-0.0461006-0.2754745-0.0461006-0.4598351l1.6062813,1.2883377
	c-0.2757416,1.5637589-1.651947,2.9431858-3.2578163,2.7599163c0.0917702,0.2754478,0.1374321,0.5058842,0.1374321,0.8735123
	c0,1.1500549-1.0095215,2.4834061-2.110424,2.8981743l-1.6062813-1.2422066
	c1.0095482-0.0921822,1.8355331-0.7813606,1.8355331-1.8863754c0-1.0579014-0.917778-1.839262-1.9273262-1.839262
	c-1.055212,0-1.8350945,0.920681-1.8350945,2.0235958c0,1.3343849,1.6054802,3.8638916,4.6801491,3.8638916
	c1.2391891,0,2.431881-0.3676529,3.3496361-1.1961555l-1.0095482-0.7813606
	c0.2292252-0.7823982,0.6881142-1.4726448,1.4223328-1.7941971l1.0095215,0.7813606
	c0.3671227-0.6892052,0.5967636-1.4716053,0.5967636-2.2990685c0-2.2079296-1.6980782-5.0139217-4.405262-5.0139217
	C34.2303123,25.8520832,33.2208138,26.6344814,33.2208138,27.8285351z"/>
<g>
</g>
<g>
</g>
<g>
</g>
<g>
</g>
<g>
</g>
<g>
</g>
<g>
</g>
<g>
</g>
<g>
</g>
<g>
</g>
<g>
</g>
<g>
</g>
<g>
</g>
<g>
</g>
<g>
</g>
</svg>
